<svg width="64" height="64" viewBox="0 0 64 64" fill="none" xmlns="http://www.w3.org/2000/svg">
  <!-- NeoPOP-style icon 2 - AI Brain -->
  <defs>
    <linearGradient id="gradient2" x1="0%" y1="0%" x2="100%" y2="100%">
      <stop offset="0%" style="stop-color:#06b6d4;stop-opacity:1" />
      <stop offset="100%" style="stop-color:#3b82f6;stop-opacity:1" />
    </linearGradient>
  </defs>
  
  <!-- Brain shape -->
  <path d="M32 8 C20 8 12 16 12 28 C12 36 16 42 20 44 C18 48 22 52 28 52 C34 52 38 48 36 44 C40 42 44 36 44 28 C44 16 36 8 32 8 Z" fill="url(#gradient2)" stroke="#1f2937" stroke-width="2"/>
  
  <!-- Neural connections -->
  <circle cx="24" cy="24" r="2" fill="#1f2937"/>
  <circle cx="40" cy="24" r="2" fill="#1f2937"/>
  <circle cx="32" cy="32" r="2" fill="#1f2937"/>
  <circle cx="28" cy="40" r="2" fill="#1f2937"/>
  <circle cx="36" cy="40" r="2" fill="#1f2937"/>
  
  <!-- Connection lines -->
  <line x1="24" y1="24" x2="32" y2="32" stroke="#1f2937" stroke-width="1" opacity="0.6"/>
  <line x1="40" y1="24" x2="32" y2="32" stroke="#1f2937" stroke-width="1" opacity="0.6"/>
  <line x1="32" y1="32" x2="28" y2="40" stroke="#1f2937" stroke-width="1" opacity="0.6"/>
  <line x1="32" y1="32" x2="36" y2="40" stroke="#1f2937" stroke-width="1" opacity="0.6"/>
  
  <!-- Accent elements -->
  <rect x="48" y="12" width="8" height="8" rx="2" fill="#f59e0b" opacity="0.8"/>
  <rect x="8" y="48" width="6" height="6" rx="1" fill="#ef4444" opacity="0.8"/>
</svg>
